<?xml version="1.0" encoding="UTF-8" standalone="no"?><svg xmlns="http://www.w3.org/2000/svg" xmlns:xlink="http://www.w3.org/1999/xlink" contentScriptType="application/ecmascript" contentStyleType="text/css" height="628px" preserveAspectRatio="none" style="width:953px;height:628px;" version="1.1" viewBox="0 0 953 628" width="953px" zoomAndPan="magnify"><defs><filter height="300%" id="f2gqvb2e3rjmq" width="300%" x="-1" y="-1"><feGaussianBlur result="blurOut" stdDeviation="2.0"/><feColorMatrix in="blurOut" result="blurOut2" type="matrix" values="0 0 0 0 0 0 0 0 0 0 0 0 0 0 0 0 0 0 .4 0"/><feOffset dx="4.0" dy="4.0" in="blurOut2" result="blurOut3"/><feBlend in="SourceGraphic" in2="blurOut3" mode="normal"/></filter></defs><g><!--MD5=[e36a4c0f7055b067b077b74a1222e806]
class Simulation--><rect fill="#FEFECE" filter="url(#f2gqvb2e3rjmq)" height="214.4609" id="Simulation" style="stroke: #A80036; stroke-width: 1.5;" width="242" x="497.5" y="8"/><ellipse cx="581.75" cy="24" fill="#ADD1B2" rx="11" ry="11" style="stroke: #A80036; stroke-width: 1.0;"/><path d="M584.7188,29.6406 Q584.1406,29.9375 583.5,30.0859 Q582.8594,30.2344 582.1563,30.2344 Q579.6563,30.2344 578.3359,28.5859 Q577.0156,26.9375 577.0156,23.8125 Q577.0156,20.6875 578.3359,19.0313 Q579.6563,17.375 582.1563,17.375 Q582.8594,17.375 583.5078,17.5313 Q584.1563,17.6875 584.7188,17.9844 L584.7188,20.7031 Q584.0938,20.125 583.5,19.8516 Q582.9063,19.5781 582.2813,19.5781 Q580.9375,19.5781 580.25,20.6484 Q579.5625,21.7188 579.5625,23.8125 Q579.5625,25.9063 580.25,26.9766 Q580.9375,28.0469 582.2813,28.0469 Q582.9063,28.0469 583.5,27.7734 Q584.0938,27.5 584.7188,26.9219 L584.7188,29.6406 Z "/><text fill="#000000" font-family="sans-serif" font-size="12" lengthAdjust="spacingAndGlyphs" textLength="65" x="602.25" y="28.1543">Simulation</text><line style="stroke: #A80036; stroke-width: 1.5;" x1="498.5" x2="738.5" y1="40" y2="40"/><rect fill="none" height="6" style="stroke: #C82930; stroke-width: 1.0;" width="6" x="505.5" y="48"/><text fill="#000000" font-family="sans-serif" font-size="11" lengthAdjust="spacingAndGlyphs" textLength="87" x="517.5" y="54.2104">terrain: Terrain</text><rect fill="none" height="6" style="stroke: #C82930; stroke-width: 1.0;" width="6" x="505.5" y="60.8047"/><text fill="#000000" font-family="sans-serif" font-size="11" lengthAdjust="spacingAndGlyphs" textLength="54" x="517.5" y="67.0151">a: Agents</text><rect fill="none" height="6" style="stroke: #C82930; stroke-width: 1.0;" width="6" x="505.5" y="73.6094"/><text fill="#000000" font-family="sans-serif" font-size="11" lengthAdjust="spacingAndGlyphs" textLength="65" x="517.5" y="79.8198">r: Stockage</text><rect fill="none" height="6" style="stroke: #C82930; stroke-width: 1.0;" width="6" x="505.5" y="86.4141"/><text fill="#000000" font-family="sans-serif" font-size="11" lengthAdjust="spacingAndGlyphs" textLength="46" x="517.5" y="92.6245">goal: int</text><line style="stroke: #A80036; stroke-width: 1.5;" x1="498.5" x2="738.5" y1="99.2188" y2="99.2188"/><ellipse cx="508.5" cy="110.2188" fill="#84BE84" rx="3" ry="3" style="stroke: #038048; stroke-width: 1.0;"/><text fill="#000000" font-family="sans-serif" font-size="11" lengthAdjust="spacingAndGlyphs" textLength="216" x="517.5" y="113.4292">Simulation(Terrain, Agents, Stockage)</text><ellipse cx="508.5" cy="123.0234" fill="#84BE84" rx="3" ry="3" style="stroke: #038048; stroke-width: 1.0;"/><text fill="#000000" font-family="sans-serif" font-size="11" lengthAdjust="spacingAndGlyphs" textLength="91" x="517.5" y="126.2339">initialiser(): void</text><ellipse cx="508.5" cy="135.8281" fill="#84BE84" rx="3" ry="3" style="stroke: #038048; stroke-width: 1.0;"/><text fill="#000000" font-family="sans-serif" font-size="11" lengthAdjust="spacingAndGlyphs" textLength="65" x="517.5" y="139.0386">recolte(): id</text><ellipse cx="508.5" cy="148.6328" fill="#84BE84" rx="3" ry="3" style="stroke: #038048; stroke-width: 1.0;"/><text fill="#000000" font-family="sans-serif" font-size="11" lengthAdjust="spacingAndGlyphs" text-decoration="underline" textLength="69" x="517.5" y="151.8433">waits(): void</text><ellipse cx="508.5" cy="161.4375" fill="#84BE84" rx="3" ry="3" style="stroke: #038048; stroke-width: 1.0;"/><text fill="#000000" font-family="sans-serif" font-size="11" lengthAdjust="spacingAndGlyphs" text-decoration="underline" textLength="107" x="517.5" y="164.6479">clearScreen(): void</text><ellipse cx="508.5" cy="174.2422" fill="#84BE84" rx="3" ry="3" style="stroke: #038048; stroke-width: 1.0;"/><text fill="#000000" font-family="sans-serif" font-size="11" lengthAdjust="spacingAndGlyphs" textLength="83" x="517.5" y="177.4526">Loading(): void</text><ellipse cx="508.5" cy="187.0469" fill="#84BE84" rx="3" ry="3" style="stroke: #038048; stroke-width: 1.0;"/><text fill="#000000" font-family="sans-serif" font-size="11" lengthAdjust="spacingAndGlyphs" textLength="157" x="517.5" y="190.2573">estBle(Ressource): boolean</text><ellipse cx="508.5" cy="199.8516" fill="#84BE84" rx="3" ry="3" style="stroke: #038048; stroke-width: 1.0;"/><text fill="#000000" font-family="sans-serif" font-size="11" lengthAdjust="spacingAndGlyphs" textLength="170" x="517.5" y="203.062">estGrain(Ressource): boolean</text><ellipse cx="508.5" cy="212.6563" fill="#84BE84" rx="3" ry="3" style="stroke: #038048; stroke-width: 1.0;"/><text fill="#000000" font-family="sans-serif" font-size="11" lengthAdjust="spacingAndGlyphs" textLength="116" x="517.5" y="215.8667">getTerrain(): Terrain</text><!--MD5=[348dbc6f3c2ed6f1c5cff81c881734a0]
class Agents--><rect fill="#FEFECE" filter="url(#f2gqvb2e3rjmq)" height="99.2188" id="Agents" style="stroke: #A80036; stroke-width: 1.5;" width="143" x="286" y="518"/><ellipse cx="331.25" cy="534" fill="#ADD1B2" rx="11" ry="11" style="stroke: #A80036; stroke-width: 1.0;"/><path d="M334.2188,539.6406 Q333.6406,539.9375 333,540.0859 Q332.3594,540.2344 331.6563,540.2344 Q329.1563,540.2344 327.8359,538.5859 Q326.5156,536.9375 326.5156,533.8125 Q326.5156,530.6875 327.8359,529.0313 Q329.1563,527.375 331.6563,527.375 Q332.3594,527.375 333.0078,527.5313 Q333.6563,527.6875 334.2188,527.9844 L334.2188,530.7031 Q333.5938,530.125 333,529.8516 Q332.4063,529.5781 331.7813,529.5781 Q330.4375,529.5781 329.75,530.6484 Q329.0625,531.7188 329.0625,533.8125 Q329.0625,535.9063 329.75,536.9766 Q330.4375,538.0469 331.7813,538.0469 Q332.4063,538.0469 333,537.7734 Q333.5938,537.5 334.2188,536.9219 L334.2188,539.6406 Z "/><text fill="#000000" font-family="sans-serif" font-size="12" lengthAdjust="spacingAndGlyphs" textLength="44" x="351.75" y="538.1543">Agents</text><line style="stroke: #A80036; stroke-width: 1.5;" x1="287" x2="428" y1="550" y2="550"/><rect fill="none" height="6" style="stroke: #C82930; stroke-width: 1.0;" width="6" x="294" y="558"/><text fill="#000000" font-family="sans-serif" font-size="11" lengthAdjust="spacingAndGlyphs" textLength="66" x="306" y="564.2104">tab: Agent[]</text><line style="stroke: #A80036; stroke-width: 1.5;" x1="287" x2="428" y1="570.8047" y2="570.8047"/><ellipse cx="297" cy="581.8047" fill="#84BE84" rx="3" ry="3" style="stroke: #038048; stroke-width: 1.0;"/><text fill="#000000" font-family="sans-serif" font-size="11" lengthAdjust="spacingAndGlyphs" textLength="47" x="306" y="585.0151">Agents()</text><ellipse cx="297" cy="594.6094" fill="#84BE84" rx="3" ry="3" style="stroke: #038048; stroke-width: 1.0;"/><text fill="#000000" font-family="sans-serif" font-size="11" lengthAdjust="spacingAndGlyphs" textLength="110" x="306" y="597.8198">getFarmier(): Agent</text><ellipse cx="297" cy="607.4141" fill="#84BE84" rx="3" ry="3" style="stroke: #038048; stroke-width: 1.0;"/><text fill="#000000" font-family="sans-serif" font-size="11" lengthAdjust="spacingAndGlyphs" textLength="117" x="306" y="610.6245">getMesange(): Agent</text><!--MD5=[9d44916250b776386006c440668bcfbb]
class Agent--><rect fill="#FEFECE" filter="url(#f2gqvb2e3rjmq)" height="176.0469" id="Agent" style="stroke: #A80036; stroke-width: 1.5;" width="211" x="252" y="282"/><ellipse cx="334.75" cy="298" fill="#ADD1B2" rx="11" ry="11" style="stroke: #A80036; stroke-width: 1.0;"/><path d="M337.7188,303.6406 Q337.1406,303.9375 336.5,304.0859 Q335.8594,304.2344 335.1563,304.2344 Q332.6563,304.2344 331.3359,302.5859 Q330.0156,300.9375 330.0156,297.8125 Q330.0156,294.6875 331.3359,293.0313 Q332.6563,291.375 335.1563,291.375 Q335.8594,291.375 336.5078,291.5313 Q337.1563,291.6875 337.7188,291.9844 L337.7188,294.7031 Q337.0938,294.125 336.5,293.8516 Q335.9063,293.5781 335.2813,293.5781 Q333.9375,293.5781 333.25,294.6484 Q332.5625,295.7188 332.5625,297.8125 Q332.5625,299.9063 333.25,300.9766 Q333.9375,302.0469 335.2813,302.0469 Q335.9063,302.0469 336.5,301.7734 Q337.0938,301.5 337.7188,300.9219 L337.7188,303.6406 Z "/><text fill="#000000" font-family="sans-serif" font-size="12" lengthAdjust="spacingAndGlyphs" textLength="37" x="355.25" y="302.1543">Agent</text><line style="stroke: #A80036; stroke-width: 1.5;" x1="253" x2="462" y1="314" y2="314"/><polygon fill="none" points="263,320,267,324,263,328,259,324" style="stroke: #B38D22; stroke-width: 1.0;"/><text fill="#000000" font-family="sans-serif" font-size="11" lengthAdjust="spacingAndGlyphs" textLength="49" x="272" y="328.2104">posx: int</text><polygon fill="none" points="263,332.8047,267,336.8047,263,340.8047,259,336.8047" style="stroke: #B38D22; stroke-width: 1.0;"/><text fill="#000000" font-family="sans-serif" font-size="11" lengthAdjust="spacingAndGlyphs" textLength="49" x="272" y="341.0151">posy: int</text><line style="stroke: #A80036; stroke-width: 1.5;" x1="253" x2="462" y1="347.6094" y2="347.6094"/><ellipse cx="263" cy="358.6094" fill="#84BE84" rx="3" ry="3" style="stroke: #038048; stroke-width: 1.0;"/><text fill="#000000" font-family="sans-serif" font-size="11" lengthAdjust="spacingAndGlyphs" textLength="76" x="272" y="361.8198">Agent(int, int)</text><ellipse cx="263" cy="371.4141" fill="#84BE84" rx="3" ry="3" style="stroke: #038048; stroke-width: 1.0;"/><text fill="#000000" font-family="sans-serif" font-size="11" lengthAdjust="spacingAndGlyphs" textLength="139" x="272" y="374.6245">seDeplacer(int, int): void</text><ellipse cx="263" cy="384.2188" fill="#84BE84" rx="3" ry="3" style="stroke: #038048; stroke-width: 1.0;"/><text fill="#000000" font-family="sans-serif" font-size="11" lengthAdjust="spacingAndGlyphs" textLength="138" x="272" y="387.4292">distance(int, int): double</text><ellipse cx="263" cy="397.0234" fill="#84BE84" rx="3" ry="3" style="stroke: #038048; stroke-width: 1.0;"/><text fill="#000000" font-family="sans-serif" font-size="11" lengthAdjust="spacingAndGlyphs" textLength="120" x="272" y="400.2339">effacer(Terrain): void</text><ellipse cx="263" cy="409.8281" fill="#84BE84" rx="3" ry="3" style="stroke: #038048; stroke-width: 1.0;"/><text fill="#000000" font-family="sans-serif" font-size="11" lengthAdjust="spacingAndGlyphs" textLength="185" x="272" y="413.0386">Frecolte(Terrain, Stockage): void</text><ellipse cx="263" cy="422.6328" fill="#84BE84" rx="3" ry="3" style="stroke: #038048; stroke-width: 1.0;"/><text fill="#000000" font-family="sans-serif" font-size="11" lengthAdjust="spacingAndGlyphs" textLength="180" x="272" y="425.8433">planter(Terrain, Stockage): void</text><ellipse cx="263" cy="435.4375" fill="#84BE84" rx="3" ry="3" style="stroke: #038048; stroke-width: 1.0;"/><text fill="#000000" font-family="sans-serif" font-size="11" lengthAdjust="spacingAndGlyphs" textLength="152" x="272" y="438.6479">faireFarine(Stockage): void</text><ellipse cx="263" cy="448.2422" fill="#84BE84" rx="3" ry="3" style="stroke: #038048; stroke-width: 1.0;"/><text fill="#000000" font-family="sans-serif" font-size="11" lengthAdjust="spacingAndGlyphs" textLength="184" x="272" y="451.4526">manger(Terrain, Stockage): void</text><!--MD5=[09a6b0e8acdecb3dd68e747e7bf0e33b]
class Farmier--><rect fill="#FEFECE" filter="url(#f2gqvb2e3rjmq)" height="137.6328" id="Farmier" style="stroke: #A80036; stroke-width: 1.5;" width="211" x="6" y="46"/><ellipse cx="83.75" cy="62" fill="#ADD1B2" rx="11" ry="11" style="stroke: #A80036; stroke-width: 1.0;"/><path d="M86.7188,67.6406 Q86.1406,67.9375 85.5,68.0859 Q84.8594,68.2344 84.1563,68.2344 Q81.6563,68.2344 80.3359,66.5859 Q79.0156,64.9375 79.0156,61.8125 Q79.0156,58.6875 80.3359,57.0313 Q81.6563,55.375 84.1563,55.375 Q84.8594,55.375 85.5078,55.5313 Q86.1563,55.6875 86.7188,55.9844 L86.7188,58.7031 Q86.0938,58.125 85.5,57.8516 Q84.9063,57.5781 84.2813,57.5781 Q82.9375,57.5781 82.25,58.6484 Q81.5625,59.7188 81.5625,61.8125 Q81.5625,63.9063 82.25,64.9766 Q82.9375,66.0469 84.2813,66.0469 Q84.9063,66.0469 85.5,65.7734 Q86.0938,65.5 86.7188,64.9219 L86.7188,67.6406 Z "/><text fill="#000000" font-family="sans-serif" font-size="12" lengthAdjust="spacingAndGlyphs" textLength="47" x="104.25" y="66.1543">Farmier</text><line style="stroke: #A80036; stroke-width: 1.5;" x1="7" x2="216" y1="78" y2="78"/><line style="stroke: #A80036; stroke-width: 1.5;" x1="7" x2="216" y1="86" y2="86"/><ellipse cx="17" cy="97" fill="#84BE84" rx="3" ry="3" style="stroke: #038048; stroke-width: 1.0;"/><text fill="#000000" font-family="sans-serif" font-size="11" lengthAdjust="spacingAndGlyphs" textLength="88" x="26" y="100.2104">Farmier(int, int)</text><ellipse cx="17" cy="109.8047" fill="#84BE84" rx="3" ry="3" style="stroke: #038048; stroke-width: 1.0;"/><text fill="#000000" font-family="sans-serif" font-size="11" lengthAdjust="spacingAndGlyphs" textLength="139" x="26" y="113.0151">seDeplacer(int, int): void</text><ellipse cx="17" cy="122.6094" fill="#84BE84" rx="3" ry="3" style="stroke: #038048; stroke-width: 1.0;"/><text fill="#000000" font-family="sans-serif" font-size="11" lengthAdjust="spacingAndGlyphs" textLength="138" x="26" y="125.8198">distance(int, int): double</text><ellipse cx="17" cy="135.4141" fill="#84BE84" rx="3" ry="3" style="stroke: #038048; stroke-width: 1.0;"/><text fill="#000000" font-family="sans-serif" font-size="11" lengthAdjust="spacingAndGlyphs" textLength="120" x="26" y="138.6245">effacer(Terrain): void</text><ellipse cx="17" cy="148.2188" fill="#84BE84" rx="3" ry="3" style="stroke: #038048; stroke-width: 1.0;"/><text fill="#000000" font-family="sans-serif" font-size="11" lengthAdjust="spacingAndGlyphs" textLength="185" x="26" y="151.4292">Frecolte(Terrain, Stockage): void</text><ellipse cx="17" cy="161.0234" fill="#84BE84" rx="3" ry="3" style="stroke: #038048; stroke-width: 1.0;"/><text fill="#000000" font-family="sans-serif" font-size="11" lengthAdjust="spacingAndGlyphs" textLength="180" x="26" y="164.2339">planter(Terrain, Stockage): void</text><ellipse cx="17" cy="173.8281" fill="#84BE84" rx="3" ry="3" style="stroke: #038048; stroke-width: 1.0;"/><text fill="#000000" font-family="sans-serif" font-size="11" lengthAdjust="spacingAndGlyphs" textLength="152" x="26" y="177.0386">faireFarine(Stockage): void</text><!--MD5=[22cd1c592a68f5dd175e5e29038744b4]
class Mesange--><rect fill="#FEFECE" filter="url(#f2gqvb2e3rjmq)" height="112.0234" id="Mesange" style="stroke: #A80036; stroke-width: 1.5;" width="210" x="252.5" y="59"/><ellipse cx="324.75" cy="75" fill="#ADD1B2" rx="11" ry="11" style="stroke: #A80036; stroke-width: 1.0;"/><path d="M327.7188,80.6406 Q327.1406,80.9375 326.5,81.0859 Q325.8594,81.2344 325.1563,81.2344 Q322.6563,81.2344 321.3359,79.5859 Q320.0156,77.9375 320.0156,74.8125 Q320.0156,71.6875 321.3359,70.0313 Q322.6563,68.375 325.1563,68.375 Q325.8594,68.375 326.5078,68.5313 Q327.1563,68.6875 327.7188,68.9844 L327.7188,71.7031 Q327.0938,71.125 326.5,70.8516 Q325.9063,70.5781 325.2813,70.5781 Q323.9375,70.5781 323.25,71.6484 Q322.5625,72.7188 322.5625,74.8125 Q322.5625,76.9063 323.25,77.9766 Q323.9375,79.0469 325.2813,79.0469 Q325.9063,79.0469 326.5,78.7734 Q327.0938,78.5 327.7188,77.9219 L327.7188,80.6406 Z "/><text fill="#000000" font-family="sans-serif" font-size="12" lengthAdjust="spacingAndGlyphs" textLength="57" x="345.25" y="79.1543">Mesange</text><line style="stroke: #A80036; stroke-width: 1.5;" x1="253.5" x2="461.5" y1="91" y2="91"/><line style="stroke: #A80036; stroke-width: 1.5;" x1="253.5" x2="461.5" y1="99" y2="99"/><ellipse cx="263.5" cy="110" fill="#84BE84" rx="3" ry="3" style="stroke: #038048; stroke-width: 1.0;"/><text fill="#000000" font-family="sans-serif" font-size="11" lengthAdjust="spacingAndGlyphs" textLength="99" x="272.5" y="113.2104">Mesange(int, int);</text><ellipse cx="263.5" cy="122.8047" fill="#84BE84" rx="3" ry="3" style="stroke: #038048; stroke-width: 1.0;"/><text fill="#000000" font-family="sans-serif" font-size="11" lengthAdjust="spacingAndGlyphs" textLength="139" x="272.5" y="126.0151">seDeplacer(int, int): void</text><ellipse cx="263.5" cy="135.6094" fill="#84BE84" rx="3" ry="3" style="stroke: #038048; stroke-width: 1.0;"/><text fill="#000000" font-family="sans-serif" font-size="11" lengthAdjust="spacingAndGlyphs" textLength="138" x="272.5" y="138.8198">distance(int, int): double</text><ellipse cx="263.5" cy="148.4141" fill="#84BE84" rx="3" ry="3" style="stroke: #038048; stroke-width: 1.0;"/><text fill="#000000" font-family="sans-serif" font-size="11" lengthAdjust="spacingAndGlyphs" textLength="120" x="272.5" y="151.6245">effacer(Terrain): void</text><ellipse cx="263.5" cy="161.2188" fill="#84BE84" rx="3" ry="3" style="stroke: #038048; stroke-width: 1.0;"/><text fill="#000000" font-family="sans-serif" font-size="11" lengthAdjust="spacingAndGlyphs" textLength="184" x="272.5" y="164.4292">manger(Terrain, Stockage): void</text><!--MD5=[8066ffadf23a6f33f673439e4d1ab4d2]
class Informations--><rect fill="#FEFECE" filter="url(#f2gqvb2e3rjmq)" height="48" id="Informations" style="stroke: #A80036; stroke-width: 1.5;" width="110" x="803.5" y="346"/><ellipse cx="818.5" cy="362" fill="#ADD1B2" rx="11" ry="11" style="stroke: #A80036; stroke-width: 1.0;"/><path d="M821.4688,367.6406 Q820.8906,367.9375 820.25,368.0859 Q819.6094,368.2344 818.9063,368.2344 Q816.4063,368.2344 815.0859,366.5859 Q813.7656,364.9375 813.7656,361.8125 Q813.7656,358.6875 815.0859,357.0313 Q816.4063,355.375 818.9063,355.375 Q819.6094,355.375 820.2578,355.5313 Q820.9063,355.6875 821.4688,355.9844 L821.4688,358.7031 Q820.8438,358.125 820.25,357.8516 Q819.6563,357.5781 819.0313,357.5781 Q817.6875,357.5781 817,358.6484 Q816.3125,359.7188 816.3125,361.8125 Q816.3125,363.9063 817,364.9766 Q817.6875,366.0469 819.0313,366.0469 Q819.6563,366.0469 820.25,365.7734 Q820.8438,365.5 821.4688,364.9219 L821.4688,367.6406 Z "/><text fill="#000000" font-family="sans-serif" font-size="12" lengthAdjust="spacingAndGlyphs" textLength="78" x="832.5" y="366.1543">Informations</text><line style="stroke: #A80036; stroke-width: 1.5;" x1="804.5" x2="912.5" y1="378" y2="378"/><line style="stroke: #A80036; stroke-width: 1.5;" x1="804.5" x2="912.5" y1="386" y2="386"/><!--MD5=[292033ffe4750640675b59034298e578]
class Display--><rect fill="#FEFECE" filter="url(#f2gqvb2e3rjmq)" height="86.4141" id="Display" style="stroke: #A80036; stroke-width: 1.5;" width="168" x="774.5" y="72"/><ellipse cx="832.25" cy="88" fill="#ADD1B2" rx="11" ry="11" style="stroke: #A80036; stroke-width: 1.0;"/><path d="M835.2188,93.6406 Q834.6406,93.9375 834,94.0859 Q833.3594,94.2344 832.6563,94.2344 Q830.1563,94.2344 828.8359,92.5859 Q827.5156,90.9375 827.5156,87.8125 Q827.5156,84.6875 828.8359,83.0313 Q830.1563,81.375 832.6563,81.375 Q833.3594,81.375 834.0078,81.5313 Q834.6563,81.6875 835.2188,81.9844 L835.2188,84.7031 Q834.5938,84.125 834,83.8516 Q833.4063,83.5781 832.7813,83.5781 Q831.4375,83.5781 830.75,84.6484 Q830.0625,85.7188 830.0625,87.8125 Q830.0625,89.9063 830.75,90.9766 Q831.4375,92.0469 832.7813,92.0469 Q833.4063,92.0469 834,91.7734 Q834.5938,91.5 835.2188,90.9219 L835.2188,93.6406 Z "/><text fill="#000000" font-family="sans-serif" font-size="12" lengthAdjust="spacingAndGlyphs" textLength="44" x="852.75" y="92.1543">Display</text><line style="stroke: #A80036; stroke-width: 1.5;" x1="775.5" x2="941.5" y1="104" y2="104"/><line style="stroke: #A80036; stroke-width: 1.5;" x1="775.5" x2="941.5" y1="112" y2="112"/><ellipse cx="785.5" cy="123" fill="#84BE84" rx="3" ry="3" style="stroke: #038048; stroke-width: 1.0;"/><text fill="#000000" font-family="sans-serif" font-size="11" lengthAdjust="spacingAndGlyphs" textLength="142" x="794.5" y="126.2104">farineDis(Stockage): void</text><ellipse cx="785.5" cy="135.8047" fill="#84BE84" rx="3" ry="3" style="stroke: #038048; stroke-width: 1.0;"/><text fill="#000000" font-family="sans-serif" font-size="11" lengthAdjust="spacingAndGlyphs" textLength="126" x="794.5" y="139.0151">bleDis(Stockage): void</text><ellipse cx="785.5" cy="148.6094" fill="#84BE84" rx="3" ry="3" style="stroke: #038048; stroke-width: 1.0;"/><text fill="#000000" font-family="sans-serif" font-size="11" lengthAdjust="spacingAndGlyphs" textLength="138" x="794.5" y="151.8198">grainDis(Stockage): void</text><!--MD5=[d107335b6cc3161d697f87ac26b9e81a]
class Stockage--><rect fill="#FEFECE" filter="url(#f2gqvb2e3rjmq)" height="176.0469" id="Stockage" style="stroke: #A80036; stroke-width: 1.5;" width="155" x="500" y="282"/><ellipse cx="543.8" cy="298" fill="#ADD1B2" rx="11" ry="11" style="stroke: #A80036; stroke-width: 1.0;"/><path d="M546.7688,303.6406 Q546.1906,303.9375 545.55,304.0859 Q544.9094,304.2344 544.2063,304.2344 Q541.7063,304.2344 540.3859,302.5859 Q539.0656,300.9375 539.0656,297.8125 Q539.0656,294.6875 540.3859,293.0313 Q541.7063,291.375 544.2063,291.375 Q544.9094,291.375 545.5578,291.5313 Q546.2063,291.6875 546.7688,291.9844 L546.7688,294.7031 Q546.1438,294.125 545.55,293.8516 Q544.9563,293.5781 544.3313,293.5781 Q542.9875,293.5781 542.3,294.6484 Q541.6125,295.7188 541.6125,297.8125 Q541.6125,299.9063 542.3,300.9766 Q542.9875,302.0469 544.3313,302.0469 Q544.9563,302.0469 545.55,301.7734 Q546.1438,301.5 546.7688,300.9219 L546.7688,303.6406 Z "/><text fill="#000000" font-family="sans-serif" font-size="12" lengthAdjust="spacingAndGlyphs" textLength="59" x="564.2" y="302.1543">Stockage</text><line style="stroke: #A80036; stroke-width: 1.5;" x1="501" x2="654" y1="314" y2="314"/><rect fill="none" height="6" style="stroke: #C82930; stroke-width: 1.0;" width="6" x="508" y="322"/><text fill="#000000" font-family="sans-serif" font-size="11" lengthAdjust="spacingAndGlyphs" textLength="94" x="520" y="328.2104">tab: Ressource[]</text><line style="stroke: #A80036; stroke-width: 1.5;" x1="501" x2="654" y1="334.8047" y2="334.8047"/><ellipse cx="511" cy="345.8047" fill="#84BE84" rx="3" ry="3" style="stroke: #038048; stroke-width: 1.0;"/><text fill="#000000" font-family="sans-serif" font-size="11" lengthAdjust="spacingAndGlyphs" textLength="74" x="520" y="349.0151">Stockage(int)</text><ellipse cx="511" cy="358.6094" fill="#84BE84" rx="3" ry="3" style="stroke: #038048; stroke-width: 1.0;"/><text fill="#000000" font-family="sans-serif" font-size="11" lengthAdjust="spacingAndGlyphs" textLength="112" x="520" y="361.8198">Stockage(Stockage)</text><ellipse cx="511" cy="371.4141" fill="#84BE84" rx="3" ry="3" style="stroke: #038048; stroke-width: 1.0;"/><text fill="#000000" font-family="sans-serif" font-size="11" lengthAdjust="spacingAndGlyphs" textLength="125" x="520" y="374.6245">getGrain(): Ressource</text><ellipse cx="511" cy="384.2188" fill="#84BE84" rx="3" ry="3" style="stroke: #038048; stroke-width: 1.0;"/><text fill="#000000" font-family="sans-serif" font-size="11" lengthAdjust="spacingAndGlyphs" textLength="112" x="520" y="387.4292">getBle(): Ressource</text><ellipse cx="511" cy="397.0234" fill="#84BE84" rx="3" ry="3" style="stroke: #038048; stroke-width: 1.0;"/><text fill="#000000" font-family="sans-serif" font-size="11" lengthAdjust="spacingAndGlyphs" textLength="129" x="520" y="400.2339">getFarine(): Ressource</text><ellipse cx="511" cy="409.8281" fill="#84BE84" rx="3" ry="3" style="stroke: #038048; stroke-width: 1.0;"/><text fill="#000000" font-family="sans-serif" font-size="11" lengthAdjust="spacingAndGlyphs" textLength="95" x="520" y="413.0386">addFarine(): void</text><ellipse cx="511" cy="422.6328" fill="#84BE84" rx="3" ry="3" style="stroke: #038048; stroke-width: 1.0;"/><text fill="#000000" font-family="sans-serif" font-size="11" lengthAdjust="spacingAndGlyphs" textLength="91" x="520" y="425.8433">addGrain(): void</text><ellipse cx="511" cy="435.4375" fill="#84BE84" rx="3" ry="3" style="stroke: #038048; stroke-width: 1.0;"/><text fill="#000000" font-family="sans-serif" font-size="11" lengthAdjust="spacingAndGlyphs" textLength="78" x="520" y="438.6479">addBle(): void</text><ellipse cx="511" cy="448.2422" fill="#84BE84" rx="3" ry="3" style="stroke: #038048; stroke-width: 1.0;"/><text fill="#000000" font-family="sans-serif" font-size="11" lengthAdjust="spacingAndGlyphs" textLength="91" x="520" y="451.4526">subGrain(): void</text><!--MD5=[96cdea1afac70625266c09042de03e1a]
class Terrain--><rect fill="#FEFECE" filter="url(#f2gqvb2e3rjmq)" height="48" id="Terrain" style="stroke: #A80036; stroke-width: 1.5;" width="76" x="690.5" y="346"/><ellipse cx="705.5" cy="362" fill="#ADD1B2" rx="11" ry="11" style="stroke: #A80036; stroke-width: 1.0;"/><path d="M708.4688,367.6406 Q707.8906,367.9375 707.25,368.0859 Q706.6094,368.2344 705.9063,368.2344 Q703.4063,368.2344 702.0859,366.5859 Q700.7656,364.9375 700.7656,361.8125 Q700.7656,358.6875 702.0859,357.0313 Q703.4063,355.375 705.9063,355.375 Q706.6094,355.375 707.2578,355.5313 Q707.9063,355.6875 708.4688,355.9844 L708.4688,358.7031 Q707.8438,358.125 707.25,357.8516 Q706.6563,357.5781 706.0313,357.5781 Q704.6875,357.5781 704,358.6484 Q703.3125,359.7188 703.3125,361.8125 Q703.3125,363.9063 704,364.9766 Q704.6875,366.0469 706.0313,366.0469 Q706.6563,366.0469 707.25,365.7734 Q707.8438,365.5 708.4688,364.9219 L708.4688,367.6406 Z "/><text fill="#000000" font-family="sans-serif" font-size="12" lengthAdjust="spacingAndGlyphs" textLength="44" x="719.5" y="366.1543">Terrain</text><line style="stroke: #A80036; stroke-width: 1.5;" x1="691.5" x2="765.5" y1="378" y2="378"/><line style="stroke: #A80036; stroke-width: 1.5;" x1="691.5" x2="765.5" y1="386" y2="386"/><!--MD5=[bd5c450c51c35f1826320172b32ecdb2]
class Ressource--><rect fill="#FEFECE" filter="url(#f2gqvb2e3rjmq)" height="48" id="Ressource" style="stroke: #A80036; stroke-width: 1.5;" width="98" x="528.5" y="543.5"/><ellipse cx="543.5" cy="559.5" fill="#ADD1B2" rx="11" ry="11" style="stroke: #A80036; stroke-width: 1.0;"/><path d="M546.4688,565.1406 Q545.8906,565.4375 545.25,565.5859 Q544.6094,565.7344 543.9063,565.7344 Q541.4063,565.7344 540.0859,564.0859 Q538.7656,562.4375 538.7656,559.3125 Q538.7656,556.1875 540.0859,554.5313 Q541.4063,552.875 543.9063,552.875 Q544.6094,552.875 545.2578,553.0313 Q545.9063,553.1875 546.4688,553.4844 L546.4688,556.2031 Q545.8438,555.625 545.25,555.3516 Q544.6563,555.0781 544.0313,555.0781 Q542.6875,555.0781 542,556.1484 Q541.3125,557.2188 541.3125,559.3125 Q541.3125,561.4063 542,562.4766 Q542.6875,563.5469 544.0313,563.5469 Q544.6563,563.5469 545.25,563.2734 Q545.8438,563 546.4688,562.4219 L546.4688,565.1406 Z "/><text fill="#000000" font-family="sans-serif" font-size="12" lengthAdjust="spacingAndGlyphs" textLength="66" x="557.5" y="563.6543">Ressource</text><line style="stroke: #A80036; stroke-width: 1.5;" x1="529.5" x2="625.5" y1="575.5" y2="575.5"/><line style="stroke: #A80036; stroke-width: 1.5;" x1="529.5" x2="625.5" y1="583.5" y2="583.5"/><!--MD5=[dab2536ecfb580ab2507ef08d7c489f2]
link Mesange to Agent--><path d="M357.5,171.2765 C357.5,197.8661 357.5,230.5405 357.5,261.6571 " fill="none" id="Mesange-&gt;Agent" style="stroke: #A80036; stroke-width: 1.0;"/><polygon fill="none" points="364.5001,261.8006,357.5,281.8006,350.5001,261.8005,364.5001,261.8006" style="stroke: #A80036; stroke-width: 1.0;"/><!--MD5=[4f71a5e6a306a7d328922f8688cfa8c3]
link Farmier to Agent--><path d="M178.0711,184.0067 C202.7901,209.63 231.391,239.2773 258.394,267.2681 " fill="none" id="Farmier-&gt;Agent" style="stroke: #A80036; stroke-width: 1.0;"/><polygon fill="none" points="263.4921,262.4706,272.3401,281.7245,253.4164,272.1907,263.4921,262.4706" style="stroke: #A80036; stroke-width: 1.0;"/><!--MD5=[88ff0016d87d23a9450480cde0cdadb2]
link Simulation to Stockage--><path d="M601.2905,222.0346 C598.8159,237.4254 596.2756,253.2247 593.819,268.5037 " fill="none" id="Simulation-&gt;Stockage" style="stroke: #A80036; stroke-width: 1.0;"/><polygon fill="#A80036" points="591.6855,281.7734,596.5873,276.4845,593.5905,269.9256,588.6887,275.2145,591.6855,281.7734" style="stroke: #A80036; stroke-width: 1.0;"/><!--MD5=[133a9f5cc1b03f7927ae46783dac37da]
link Simulation to Agent--><path d="M508.9469,222.0346 C491.7619,238.8245 474.0793,256.1007 457.1334,272.6571 " fill="none" id="Simulation-&gt;Agent" style="stroke: #A80036; stroke-width: 1.0;"/><polygon fill="#A80036" points="447.8026,281.7734,454.8896,280.4415,456.3859,273.3873,449.2989,274.7192,447.8026,281.7734" style="stroke: #A80036; stroke-width: 1.0;"/><!--MD5=[e048e8967ddc4dc2d36ebb3455d68d29]
link Simulation to Terrain--><path d="M664.6718,222.0346 C681.8801,261.9267 700.2724,304.5633 712.8715,333.7703 " fill="none" id="Simulation-&gt;Terrain" style="stroke: #A80036; stroke-width: 1.0;"/><polygon fill="#A80036" points="718.0616,345.8019,719.3578,338.7083,713.3084,334.7834,712.0122,341.877,718.0616,345.8019" style="stroke: #A80036; stroke-width: 1.0;"/><!--MD5=[cb2f65e64d6fa752e3c59b3fa2f0499f]
link Stockage to Ressource--><path d="M577.5,458.0643 C577.5,483.4718 577.5,509.8341 577.5,530.3169 " fill="none" id="Stockage-&gt;Ressource" style="stroke: #A80036; stroke-width: 1.0;"/><polygon fill="#A80036" points="577.5,543.4739,581.5,537.4739,577.5,531.4739,573.5,537.4739,577.5,543.4739" style="stroke: #A80036; stroke-width: 1.0;"/><!--MD5=[c1d4bb08240a3c2a4146ca04f32e2744]
link Display to Informations--><path d="M858.5,158.2573 C858.5,210.1441 858.5,295.7226 858.5,340.5431 " fill="none" id="Display-&gt;Informations" style="stroke: #A80036; stroke-width: 1.0;"/><polygon fill="#A80036" points="858.5,345.8019,862.5,336.8019,858.5,340.8019,854.5,336.8019,858.5,345.8019" style="stroke: #A80036; stroke-width: 1.0;"/><!--MD5=[1a3e4b1222ae236919d5141171aaea72]
link Agent to Agents--><path d="M357.5,458.0643 C357.5,473.7367 357.5,489.7723 357.5,504.5672 " fill="none" id="Agent-&gt;Agents" style="stroke: #A80036; stroke-width: 1.0;"/><polygon fill="#A80036" points="357.5,517.7595,361.5,511.7595,357.5,505.7595,353.5,511.7595,357.5,517.7595" style="stroke: #A80036; stroke-width: 1.0;"/><!--MD5=[4aa36b2ddb9876930e9957bb4e82d3dc]
@startuml
class Simulation
{
  -terrain: Terrain
  -a: Agents
  -r: Stockage
  -goal: int
  
  +Simulation(Terrain, Agents, Stockage)
  +initialiser(): void
  +recolte(): id
  +{static}waits(): void
  +{static}clearScreen(): void
  +Loading(): void
  +estBle(Ressource): boolean
  +estGrain(Ressource): boolean
  +getTerrain(): Terrain
}
class Agents
{
  -tab: Agent[]
  +Agents()
  +getFarmier(): Agent
  +getMesange(): Agent
}
class Agent
{
  #posx: int
  #posy: int
  +Agent(int, int)
  +seDeplacer(int, int): void
  +distance(int, int): double
  +effacer(Terrain): void
  +Frecolte(Terrain, Stockage): void
  +planter(Terrain, Stockage): void
  +faireFarine(Stockage): void
  +manger(Terrain, Stockage): void
}
class Farmier
{
  +Farmier(int, int)
  +seDeplacer(int, int): void
  +distance(int, int): double
  +effacer(Terrain): void
  +Frecolte(Terrain, Stockage): void
  +planter(Terrain, Stockage): void
  +faireFarine(Stockage): void
}
class Mesange
{
  +Mesange(int, int);
  +seDeplacer(int, int): void
  +distance(int, int): double
  +effacer(Terrain): void
  +manger(Terrain, Stockage): void
}
Mesange - -|> Agent
Farmier - -|> Agent

class Informations{}
class Display
{
  +farineDis(Stockage): void
  +bleDis(Stockage): void
  +grainDis(Stockage): void
}
class Stockage
{
  - tab: Ressource[]
  +Stockage(int)
  +Stockage(Stockage)
  +getGrain(): Ressource
  +getBle(): Ressource
  +getFarine(): Ressource
  +addFarine(): void
  +addGrain(): void
  +addBle(): void
  +subGrain(): void
}

Simulation - -* Stockage
Simulation - -* Agent
Simulation - -* Terrain
Stockage - -* Ressource
Display - -> Informations
Agent - -* Agents
@enduml

PlantUML version 1.2019.12(Sun Nov 03 10:24:54 UTC 2019)
(GPL source distribution)
Java Runtime: OpenJDK Runtime Environment
JVM: OpenJDK 64-Bit Server VM
Java Version: 1.8.0_232-heroku-b09
Operating System: Linux
Default Encoding: UTF-8
Language: en
Country: US
--></g></svg>