<?xml version="1.0" encoding="UTF-8" standalone="no"?><svg xmlns="http://www.w3.org/2000/svg" xmlns:xlink="http://www.w3.org/1999/xlink" contentScriptType="application/ecmascript" contentStyleType="text/css" height="623px" preserveAspectRatio="none" style="width:458px;height:623px;" version="1.1" viewBox="0 0 458 623" width="458px" zoomAndPan="magnify"><defs><filter height="300%" id="f1mm4jdcmv8eay" width="300%" x="-1" y="-1"><feGaussianBlur result="blurOut" stdDeviation="2.0"/><feColorMatrix in="blurOut" result="blurOut2" type="matrix" values="0 0 0 0 0 0 0 0 0 0 0 0 0 0 0 0 0 0 .4 0"/><feOffset dx="4.0" dy="4.0" in="blurOut2" result="blurOut3"/><feBlend in="SourceGraphic" in2="blurOut3" mode="normal"/></filter></defs><g><!--MD5=[ff74e0f0bb3fa51f8c743cb54bdb5b13]
class Train--><rect codeLine="1" fill="#FEFECE" filter="url(#f1mm4jdcmv8eay)" height="124.8281" id="Train" style="stroke:#A80036;stroke-width:1.5;" width="200" x="56.5" y="7"/><ellipse cx="136.75" cy="23" fill="#ADD1B2" rx="11" ry="11" style="stroke:#A80036;stroke-width:1.0;"/><path d="M139.7188,28.6406 Q139.1406,28.9375 138.5,29.0781 Q137.8594,29.2344 137.1563,29.2344 Q134.6563,29.2344 133.3281,27.5938 Q132.0156,25.9375 132.0156,22.8125 Q132.0156,19.6875 133.3281,18.0313 Q134.6563,16.375 137.1563,16.375 Q137.8594,16.375 138.5,16.5313 Q139.1563,16.6875 139.7188,16.9844 L139.7188,19.7031 Q139.0938,19.125 138.5,18.8594 Q137.9063,18.5781 137.2813,18.5781 Q135.9375,18.5781 135.25,19.6563 Q134.5625,20.7188 134.5625,22.8125 Q134.5625,24.9063 135.25,25.9844 Q135.9375,27.0469 137.2813,27.0469 Q137.9063,27.0469 138.5,26.7813 Q139.0938,26.5 139.7188,25.9219 L139.7188,28.6406 Z " fill="#000000"/><text fill="#000000" font-family="sans-serif" font-size="12" lengthAdjust="spacingAndGlyphs" textLength="31" x="157.25" y="27.1543">Train</text><line style="stroke:#A80036;stroke-width:1.5;" x1="57.5" x2="255.5" y1="39" y2="39"/><polygon fill="none" points="67.5,45,71.5,49,67.5,53,63.5,49" style="stroke:#B38D22;stroke-width:1.0;"/><text fill="#000000" font-family="sans-serif" font-size="11" lengthAdjust="spacingAndGlyphs" textLength="92" x="76.5" y="53.2104">motrice: Motrice</text><polygon fill="none" points="67.5,57.8047,71.5,61.8047,67.5,65.8047,63.5,61.8047" style="stroke:#B38D22;stroke-width:1.0;"/><text fill="#000000" font-family="sans-serif" font-size="11" lengthAdjust="spacingAndGlyphs" textLength="174" x="76.5" y="66.0151">listeWagon: ArrayList&lt;Wagon&gt;</text><line style="stroke:#A80036;stroke-width:1.5;" x1="57.5" x2="255.5" y1="72.6094" y2="72.6094"/><ellipse cx="67.5" cy="83.6094" fill="#84BE84" rx="3" ry="3" style="stroke:#038048;stroke-width:1.0;"/><text fill="#000000" font-family="sans-serif" font-size="11" lengthAdjust="spacingAndGlyphs" textLength="78" x="76.5" y="86.8198">Train(Motrice)</text><ellipse cx="67.5" cy="96.4141" fill="#84BE84" rx="3" ry="3" style="stroke:#038048;stroke-width:1.0;"/><text fill="#000000" font-family="sans-serif" font-size="11" lengthAdjust="spacingAndGlyphs" textLength="141" x="76.5" y="99.6245">ajoutWagon(Wagon): void</text><ellipse cx="67.5" cy="109.2188" fill="#84BE84" rx="3" ry="3" style="stroke:#038048;stroke-width:1.0;"/><text fill="#000000" font-family="sans-serif" font-size="11" lengthAdjust="spacingAndGlyphs" textLength="61" x="76.5" y="112.4292">poids(): int</text><ellipse cx="67.5" cy="122.0234" fill="#84BE84" rx="3" ry="3" style="stroke:#038048;stroke-width:1.0;"/><text fill="#000000" font-family="sans-serif" font-size="11" lengthAdjust="spacingAndGlyphs" textLength="95" x="76.5" y="125.2339">toString(): String</text><!--MD5=[6dcd4e7cde630ec9f542867fa4fde8cf]
class ElemTrain--><rect codeLine="10" fill="#FEFECE" filter="url(#f1mm4jdcmv8eay)" height="112.0234" id="ElemTrain" style="stroke:#A80036;stroke-width:1.5;" width="125" x="94" y="192"/><ellipse cx="123.4" cy="208" fill="#A9DCDF" rx="11" ry="11" style="stroke:#A80036;stroke-width:1.0;"/><path d="M123.5094,203.3438 L122.3531,208.4219 L124.6813,208.4219 L123.5094,203.3438 Z M122.025,201.1094 L125.0094,201.1094 L128.3688,213.5 L125.9156,213.5 L125.15,210.4375 L121.8688,210.4375 L121.1188,213.5 L118.6813,213.5 L122.025,201.1094 Z " fill="#000000"/><text fill="#000000" font-family="sans-serif" font-size="12" font-style="italic" lengthAdjust="spacingAndGlyphs" textLength="61" x="140.6" y="212.1543">ElemTrain</text><line style="stroke:#A80036;stroke-width:1.5;" x1="95" x2="218" y1="224" y2="224"/><polygon fill="none" points="105,230,109,234,105,238,101,234" style="stroke:#B38D22;stroke-width:1.0;"/><text fill="#000000" font-family="sans-serif" font-size="11" lengthAdjust="spacingAndGlyphs" textLength="47" x="114" y="238.2104">num: int</text><polygon fill="none" points="105,242.8047,109,246.8047,105,250.8047,101,246.8047" style="stroke:#B38D22;stroke-width:1.0;"/><text fill="#000000" font-family="sans-serif" font-size="11" lengthAdjust="spacingAndGlyphs" textLength="86" x="114" y="251.0151">marque: String</text><polygon fill="none" points="105,255.6094,109,259.6094,105,263.6094,101,259.6094" style="stroke:#B38D22;stroke-width:1.0;"/><text fill="#000000" font-family="sans-serif" font-size="11" lengthAdjust="spacingAndGlyphs" text-decoration="underline" textLength="39" x="114" y="263.8198">cpt: int</text><line style="stroke:#A80036;stroke-width:1.5;" x1="95" x2="218" y1="270.4141" y2="270.4141"/><ellipse cx="105" cy="281.4141" fill="#84BE84" rx="3" ry="3" style="stroke:#038048;stroke-width:1.0;"/><text fill="#000000" font-family="sans-serif" font-size="11" lengthAdjust="spacingAndGlyphs" textLength="99" x="114" y="284.6245">ElemTrain(String)</text><ellipse cx="105" cy="294.2188" fill="#84BE84" rx="3" ry="3" style="stroke:#038048;stroke-width:1.0;"/><text fill="#000000" font-family="sans-serif" font-size="11" font-style="italic" lengthAdjust="spacingAndGlyphs" textLength="95" x="114" y="297.4292">toString(): String</text><!--MD5=[b67f5d7d9241a757f7c50a570d2fc5ba]
class Motrice--><rect codeLine="18" fill="#FEFECE" filter="url(#f1mm4jdcmv8eay)" height="86.4141" id="Motrice" style="stroke:#A80036;stroke-width:1.5;" width="131" x="9" y="364"/><ellipse cx="47.85" cy="380" fill="#ADD1B2" rx="11" ry="11" style="stroke:#A80036;stroke-width:1.0;"/><path d="M50.8188,385.6406 Q50.2406,385.9375 49.6,386.0781 Q48.9594,386.2344 48.2563,386.2344 Q45.7563,386.2344 44.4281,384.5938 Q43.1156,382.9375 43.1156,379.8125 Q43.1156,376.6875 44.4281,375.0313 Q45.7563,373.375 48.2563,373.375 Q48.9594,373.375 49.6,373.5313 Q50.2563,373.6875 50.8188,373.9844 L50.8188,376.7031 Q50.1938,376.125 49.6,375.8594 Q49.0063,375.5781 48.3813,375.5781 Q47.0375,375.5781 46.35,376.6563 Q45.6625,377.7188 45.6625,379.8125 Q45.6625,381.9063 46.35,382.9844 Q47.0375,384.0469 48.3813,384.0469 Q49.0063,384.0469 49.6,383.7813 Q50.1938,383.5 50.8188,382.9219 L50.8188,385.6406 Z " fill="#000000"/><text fill="#000000" font-family="sans-serif" font-size="12" lengthAdjust="spacingAndGlyphs" textLength="46" x="67.15" y="384.1543">Motrice</text><line style="stroke:#A80036;stroke-width:1.5;" x1="10" x2="139" y1="396" y2="396"/><polygon fill="none" points="20,402,24,406,20,410,16,406" style="stroke:#B38D22;stroke-width:1.0;"/><text fill="#000000" font-family="sans-serif" font-size="11" lengthAdjust="spacingAndGlyphs" textLength="80" x="29" y="410.2104">puissance: int</text><line style="stroke:#A80036;stroke-width:1.5;" x1="10" x2="139" y1="416.8047" y2="416.8047"/><ellipse cx="20" cy="427.8047" fill="#84BE84" rx="3" ry="3" style="stroke:#038048;stroke-width:1.0;"/><text fill="#000000" font-family="sans-serif" font-size="11" lengthAdjust="spacingAndGlyphs" textLength="105" x="29" y="431.0151">Motrice(String, int)</text><ellipse cx="20" cy="440.6094" fill="#84BE84" rx="3" ry="3" style="stroke:#038048;stroke-width:1.0;"/><text fill="#000000" font-family="sans-serif" font-size="11" lengthAdjust="spacingAndGlyphs" textLength="95" x="29" y="443.8198">toString(): String</text><!--MD5=[1146e327ce35b8430eff75a3e6a77493]
class Wagon--><rect codeLine="24" fill="#FEFECE" filter="url(#f1mm4jdcmv8eay)" height="86.4141" id="Wagon" style="stroke:#A80036;stroke-width:1.5;" width="127" x="175" y="364"/><ellipse cx="213.4" cy="380" fill="#A9DCDF" rx="11" ry="11" style="stroke:#A80036;stroke-width:1.0;"/><path d="M213.5094,375.3438 L212.3531,380.4219 L214.6813,380.4219 L213.5094,375.3438 Z M212.025,373.1094 L215.0094,373.1094 L218.3688,385.5 L215.9156,385.5 L215.15,382.4375 L211.8688,382.4375 L211.1188,385.5 L208.6813,385.5 L212.025,373.1094 Z " fill="#000000"/><text fill="#000000" font-family="sans-serif" font-size="12" font-style="italic" lengthAdjust="spacingAndGlyphs" textLength="43" x="232.6" y="384.1543">Wagon</text><line style="stroke:#A80036;stroke-width:1.5;" x1="176" x2="301" y1="396" y2="396"/><polygon fill="none" points="186,402,190,406,186,410,182,406" style="stroke:#B38D22;stroke-width:1.0;"/><text fill="#000000" font-family="sans-serif" font-size="11" lengthAdjust="spacingAndGlyphs" textLength="73" x="195" y="410.2104">nbPortes: int</text><line style="stroke:#A80036;stroke-width:1.5;" x1="176" x2="301" y1="416.8047" y2="416.8047"/><ellipse cx="186" cy="427.8047" fill="#84BE84" rx="3" ry="3" style="stroke:#038048;stroke-width:1.0;"/><text fill="#000000" font-family="sans-serif" font-size="11" lengthAdjust="spacingAndGlyphs" textLength="101" x="195" y="431.0151">Wagon(String, int)</text><ellipse cx="186" cy="440.6094" fill="#84BE84" rx="3" ry="3" style="stroke:#038048;stroke-width:1.0;"/><text fill="#000000" font-family="sans-serif" font-size="11" font-style="italic" lengthAdjust="spacingAndGlyphs" textLength="95" x="195" y="443.8198">toString(): String</text><!--MD5=[865ffd6646631f8f280bf970747a1572]
class WVoyageur--><rect codeLine="30" fill="#FEFECE" filter="url(#f1mm4jdcmv8eay)" height="86.4141" id="WVoyageur" style="stroke:#A80036;stroke-width:1.5;" width="174" x="41.5" y="516.5"/><ellipse cx="89.25" cy="532.5" fill="#ADD1B2" rx="11" ry="11" style="stroke:#A80036;stroke-width:1.0;"/><path d="M92.2188,538.1406 Q91.6406,538.4375 91,538.5781 Q90.3594,538.7344 89.6563,538.7344 Q87.1563,538.7344 85.8281,537.0938 Q84.5156,535.4375 84.5156,532.3125 Q84.5156,529.1875 85.8281,527.5313 Q87.1563,525.875 89.6563,525.875 Q90.3594,525.875 91,526.0313 Q91.6563,526.1875 92.2188,526.4844 L92.2188,529.2031 Q91.5938,528.625 91,528.3594 Q90.4063,528.0781 89.7813,528.0781 Q88.4375,528.0781 87.75,529.1563 Q87.0625,530.2188 87.0625,532.3125 Q87.0625,534.4063 87.75,535.4844 Q88.4375,536.5469 89.7813,536.5469 Q90.4063,536.5469 91,536.2813 Q91.5938,536 92.2188,535.4219 L92.2188,538.1406 Z " fill="#000000"/><text fill="#000000" font-family="sans-serif" font-size="12" lengthAdjust="spacingAndGlyphs" textLength="70" x="109.75" y="536.6543">WVoyageur</text><line style="stroke:#A80036;stroke-width:1.5;" x1="42.5" x2="214.5" y1="548.5" y2="548.5"/><polygon fill="none" points="52.5,554.5,56.5,558.5,52.5,562.5,48.5,558.5" style="stroke:#B38D22;stroke-width:1.0;"/><text fill="#000000" font-family="sans-serif" font-size="11" lengthAdjust="spacingAndGlyphs" textLength="73" x="61.5" y="562.7104">nbPlaces: int</text><line style="stroke:#A80036;stroke-width:1.5;" x1="42.5" x2="214.5" y1="569.3047" y2="569.3047"/><ellipse cx="52.5" cy="580.3047" fill="#84BE84" rx="3" ry="3" style="stroke:#038048;stroke-width:1.0;"/><text fill="#000000" font-family="sans-serif" font-size="11" lengthAdjust="spacingAndGlyphs" textLength="148" x="61.5" y="583.5151">WVoyageur(String, int, int)</text><ellipse cx="52.5" cy="593.1094" fill="#84BE84" rx="3" ry="3" style="stroke:#038048;stroke-width:1.0;"/><text fill="#000000" font-family="sans-serif" font-size="11" lengthAdjust="spacingAndGlyphs" textLength="95" x="61.5" y="596.3198">toString(): String</text><!--MD5=[0d8cfc75ab0c5bb6a95b91804cf32e00]
class WMarchandise--><rect codeLine="36" fill="#FEFECE" filter="url(#f1mm4jdcmv8eay)" height="99.2188" id="WMarchandise" style="stroke:#A80036;stroke-width:1.5;" width="193" x="251" y="510"/><ellipse cx="297.75" cy="526" fill="#ADD1B2" rx="11" ry="11" style="stroke:#A80036;stroke-width:1.0;"/><path d="M300.7188,531.6406 Q300.1406,531.9375 299.5,532.0781 Q298.8594,532.2344 298.1563,532.2344 Q295.6563,532.2344 294.3281,530.5938 Q293.0156,528.9375 293.0156,525.8125 Q293.0156,522.6875 294.3281,521.0313 Q295.6563,519.375 298.1563,519.375 Q298.8594,519.375 299.5,519.5313 Q300.1563,519.6875 300.7188,519.9844 L300.7188,522.7031 Q300.0938,522.125 299.5,521.8594 Q298.9063,521.5781 298.2813,521.5781 Q296.9375,521.5781 296.25,522.6563 Q295.5625,523.7188 295.5625,525.8125 Q295.5625,527.9063 296.25,528.9844 Q296.9375,530.0469 298.2813,530.0469 Q298.9063,530.0469 299.5,529.7813 Q300.0938,529.5 300.7188,528.9219 L300.7188,531.6406 Z " fill="#000000"/><text fill="#000000" font-family="sans-serif" font-size="12" lengthAdjust="spacingAndGlyphs" textLength="91" x="318.25" y="530.1543">WMarchandise</text><line style="stroke:#A80036;stroke-width:1.5;" x1="252" x2="443" y1="542" y2="542"/><polygon fill="none" points="262,548,266,552,262,556,258,552" style="stroke:#B38D22;stroke-width:1.0;"/><text fill="#000000" font-family="sans-serif" font-size="11" lengthAdjust="spacingAndGlyphs" textLength="53" x="271" y="556.2104">poids: int</text><line style="stroke:#A80036;stroke-width:1.5;" x1="252" x2="443" y1="562.8047" y2="562.8047"/><ellipse cx="262" cy="573.8047" fill="#84BE84" rx="3" ry="3" style="stroke:#038048;stroke-width:1.0;"/><text fill="#000000" font-family="sans-serif" font-size="11" lengthAdjust="spacingAndGlyphs" textLength="167" x="271" y="577.0151">WMarchandise(String, int, int)</text><ellipse cx="262" cy="586.6094" fill="#84BE84" rx="3" ry="3" style="stroke:#038048;stroke-width:1.0;"/><text fill="#000000" font-family="sans-serif" font-size="11" lengthAdjust="spacingAndGlyphs" textLength="79" x="271" y="589.8198">getPoids(): int</text><ellipse cx="262" cy="599.4141" fill="#84BE84" rx="3" ry="3" style="stroke:#038048;stroke-width:1.0;"/><text fill="#000000" font-family="sans-serif" font-size="11" lengthAdjust="spacingAndGlyphs" textLength="95" x="271" y="602.6245">toString(): String</text><!--MD5=[663f906c81e3cbd9bc2350dd6d4b8713]
link Train to ElemTrain--><path codeLine="43" d="M156.5,132.1814 C156.5,149.7516 156.5,168.8334 156.5,186.3436 " fill="none" id="Train-to-ElemTrain" style="stroke:#A80036;stroke-width:1.0;"/><polygon fill="#A80036" points="156.5,191.7239,160.5,182.7239,156.5,186.7239,152.5,182.7239,156.5,191.7239" style="stroke:#A80036;stroke-width:1.0;"/><!--MD5=[331fe68250b4b19a09960dd423870db5]
link ElemTrain to Motrice--><path codeLine="44" d="M127.5899,304.0575 C118.3174,322.0369 108.139,341.7732 99.1966,359.1127 " fill="none" id="ElemTrain-to-Motrice" style="stroke:#A80036;stroke-width:1.0;"/><polygon fill="#A80036" points="96.709,363.9363,104.3894,357.771,99.0009,359.4925,97.2794,354.104,96.709,363.9363" style="stroke:#A80036;stroke-width:1.0;"/><!--MD5=[ba1618fe9609ad093a013d08668434f4]
link ElemTrain to Wagon--><path codeLine="45" d="M185.4101,304.0575 C194.6826,322.0369 204.861,341.7732 213.8034,359.1127 " fill="none" id="ElemTrain-to-Wagon" style="stroke:#A80036;stroke-width:1.0;"/><polygon fill="#A80036" points="216.291,363.9363,215.7206,354.104,213.9991,359.4925,208.6106,357.771,216.291,363.9363" style="stroke:#A80036;stroke-width:1.0;"/><!--MD5=[e7310940b2f577147c04e2a347dc0c3e]
link Wagon to WVoyageur--><path codeLine="46" d="M207.2726,450.2925 C193.3956,469.5311 177.0184,492.2358 162.8015,511.9456 " fill="none" id="Wagon-to-WVoyageur" style="stroke:#A80036;stroke-width:1.0;"/><polygon fill="#A80036" points="159.6149,516.3634,168.124,511.4041,162.5399,512.3082,161.6358,506.7241,159.6149,516.3634" style="stroke:#A80036;stroke-width:1.0;"/><!--MD5=[338dd675bfaa1c203f7ea367036b14b7]
link Wagon to WMarchandise--><path codeLine="47" d="M269.4435,450.2925 C281.79,467.5663 296.1338,487.6344 309.132,505.8201 " fill="none" id="Wagon-to-WMarchandise" style="stroke:#A80036;stroke-width:1.0;"/><polygon fill="#A80036" points="312.0567,509.9119,310.0775,500.264,309.1492,505.8441,303.5691,504.9159,312.0567,509.9119" style="stroke:#A80036;stroke-width:1.0;"/><!--MD5=[90ea640cfeead0d81fe5b311af4bf1b5]
@startuml
class Train
{
  # motrice: Motrice
  # listeWagon: ArrayList<Wagon> 
  + Train(Motrice)
  + ajoutWagon(Wagon): void
  + poids(): int
  + toString(): String
}
abstract class ElemTrain
{
  # num: int
  # marque: String
  # {static} cpt: int
  + ElemTrain(String)
  + {abstract} toString(): String
}
class Motrice
{
  # puissance: int
  + Motrice(String, int)
  + toString(): String
}
abstract class Wagon
{
  # nbPortes: int
  + Wagon(String, int)
  + {abstract} toString(): String
}
class WVoyageur
{
  # nbPlaces: int
  + WVoyageur(String, int, int)
  + toString(): String
}
class WMarchandise 
{
  #poids: int
  + WMarchandise(String, int, int)
  + getPoids(): int
  + toString(): String
}
Train - -> ElemTrain
ElemTrain - -> Motrice
ElemTrain - -> Wagon
Wagon - -> WVoyageur
Wagon - -> WMarchandise
@enduml

PlantUML version 1.2020.22(Sun Dec 06 09:36:27 UTC 2020)
(GPL source distribution)
Java Runtime: OpenJDK Runtime Environment
JVM: OpenJDK 64-Bit Server VM
Default Encoding: UTF-8
Language: en
Country: US
--></g></svg>